<svg width="82" height="24" viewBox="0 0 82 24" fill="none" xmlns="http://www.w3.org/2000/svg">
  <path d="M30.9864 23.8052C33.8054 23.8052 35.8889 22.1292 35.8889 19.8217C35.8889 18.7773 35.4477 17.83 34.6633 17.1985C34.0505 16.737 32.9474 16.1784 31.5993 15.6926C30.7413 15.3768 30.3981 15.0854 30.3981 14.7453C30.3981 14.4053 30.7168 14.1624 31.158 14.1624C31.4522 14.1624 31.8689 14.2595 32.2121 14.4053L32.5307 14.5267L33.1681 14.8182C33.5112 14.9396 33.8054 15.0125 34.0505 15.0368C34.8349 15.0854 35.5948 14.2838 35.5948 13.4094C35.5948 12.0006 33.7809 10.9319 31.4277 10.9319C28.7313 10.9319 26.7458 12.6079 26.7458 14.891C26.7458 15.9355 27.089 16.7856 27.7508 17.3685C28.3146 17.83 29.4667 18.3644 31.2071 18.9473C31.9669 19.2145 32.2611 19.4574 32.2611 19.8217C32.2611 20.2832 31.9179 20.5504 31.3051 20.5504C30.9129 20.5504 30.4227 20.429 30.055 20.2347L29.4667 19.9432L29.148 19.7732C28.7313 19.5546 28.3636 19.4574 28.0204 19.4574C27.187 19.4574 26.4026 20.2589 26.4026 21.1091C26.4026 22.4693 28.6578 23.8052 30.9864 23.8052ZM40.2031 23.6594C41.3307 23.6594 42.0416 22.8822 42.0416 21.6434V14.7453H42.924C44.2232 14.7453 44.934 14.1624 44.934 13.0451C44.934 11.8792 44.2722 11.3205 42.924 11.3205H42.0416V9.06165C42.0416 7.8229 41.3307 7.04565 40.2031 7.04565C39.051 7.04565 38.3647 7.8229 38.3647 9.06165V11.3205H38.0951C36.7714 11.3205 36.1095 11.8792 36.1095 13.0451C36.1095 14.1867 36.7714 14.7453 38.0951 14.7453H38.3647V21.6434C38.3647 22.8822 39.0756 23.6594 40.2031 23.6594ZM47.4098 23.6837C48.5128 23.6837 49.2237 22.9065 49.2237 21.6677V16.9556C49.2237 16.5913 49.2972 16.2027 49.4443 15.8869C49.6159 15.474 49.8855 15.2554 50.5964 15.0125C53.0477 14.0652 52.4103 14.3081 52.5574 14.2595C53.2192 13.9681 53.4889 13.5066 53.4889 12.7536C53.4889 11.8063 52.6309 10.9805 51.675 10.9805C50.817 10.9805 50.0326 11.3934 49.1011 12.365C48.7089 11.3934 48.2677 11.0534 47.4098 11.0534C46.2577 11.0534 45.5468 11.8063 45.5468 13.0694V21.6677C45.5468 22.9065 46.2577 23.6837 47.4098 23.6837ZM55.9156 10.2032C57.1903 10.2032 58.0727 9.32883 58.0727 8.09008C58.0727 6.85133 57.1657 5.95263 55.9401 5.95263C54.69 5.95263 53.783 6.85133 53.783 8.06579C53.783 9.30454 54.69 10.2032 55.9156 10.2032ZM55.9401 23.6351C57.0432 23.6351 57.754 22.8579 57.754 21.6191V13.0936C57.754 11.8549 57.0432 11.0776 55.9401 11.0776C54.788 11.0776 54.0772 11.8306 54.0772 13.0936V21.6191C54.0772 22.8822 54.7635 23.6351 55.9401 23.6351ZM68.3166 23.6594C69.3216 23.6594 70.106 22.9065 70.106 21.9349C70.106 21.3034 69.9589 21.0362 68.8804 19.7246L68.6598 19.4574L66.282 16.4698L67.9979 14.721C69.1745 13.4823 68.8559 13.8223 68.9784 13.6766C69.3216 13.288 69.3951 13.0936 69.3951 12.7293C69.3951 11.8063 68.6352 10.9562 67.7773 10.9562C67.091 10.9562 66.5762 11.2477 65.6692 12.2192L65.179 12.7536L62.8503 15.1825V7.89577C62.8503 6.65702 62.1394 5.87977 61.0119 5.87977C60.3255 5.87977 59.7127 6.21981 59.394 6.75418C59.2225 7.06993 59.1734 7.28854 59.1734 7.89577V21.6434C59.1734 22.9065 59.8598 23.6594 61.0119 23.6594C62.1639 23.6594 62.8503 22.8822 62.8503 21.6434V17.8543L65.228 20.9148L65.6692 21.4977C66.9684 23.2222 67.4832 23.6594 68.3166 23.6594ZM76.1897 23.7809C77.587 23.7809 78.9351 23.4408 80.1362 22.785C81.1167 22.2264 81.607 21.5949 81.607 20.8905C81.607 20.0403 80.9206 19.2874 80.1117 19.2874C79.8666 19.2874 79.4989 19.3845 79.1558 19.5546L78.8861 19.676L78.641 19.7975L78.3714 19.9432L78.0527 20.0889C77.3663 20.3561 76.9741 20.4533 76.3613 20.4533C75.0132 20.4533 74.1307 19.7975 73.812 18.583H80.3078C81.4109 18.583 81.8276 18.1458 81.8276 17.0285C81.8276 15.9112 81.5089 14.7696 80.9452 13.798C79.8421 11.9521 78.1017 10.9562 75.9201 10.9562C72.2677 10.9562 69.7675 13.6766 69.7675 17.66C69.7675 21.2791 72.4148 23.7809 76.1897 23.7809ZM10.8278 0.0766328L21.2013 3.81786C21.2427 3.83282 21.2829 3.84968 21.3218 3.86831C21.4148 3.89724 21.5077 3.92837 21.6002 3.96175C24.9055 5.15381 26.612 8.76876 25.4119 12.036C24.2118 15.3032 20.5595 16.9855 17.2543 15.7934L6.48186 11.9083C5.82081 11.6699 5.4795 10.9469 5.71952 10.2934C5.95954 9.63999 6.69 9.30354 7.35105 9.54195L13.3354 11.7005C13.0653 10.824 12.9861 9.88465 13.1277 8.94562L0.839143 4.5136C0.178094 4.27519 -0.163217 3.55219 0.0768035 2.89875C0.316824 2.24531 1.04729 1.90885 1.70833 2.14727L13.9968 6.57935C14.4974 5.7698 15.1674 5.10061 15.9429 4.60119L9.95863 2.44296C9.29758 2.20455 8.95627 1.48156 9.19629 0.828118C9.43631 0.174674 10.1668 -0.161778 10.8278 0.0766328ZM75.9691 13.9438C77.1947 13.9438 77.9546 14.6482 78.1752 16.0569H73.6159C73.9836 14.6724 74.7925 13.9438 75.9691 13.9438ZM15.8668 8.59128C15.1437 10.56 16.1681 12.7368 18.1549 13.4534C20.1417 14.1699 22.3386 13.1549 23.0617 11.1861C23.7848 9.21743 22.7604 7.0406 20.7736 6.32404C18.7868 5.60749 16.59 6.62257 15.8668 8.59128Z" fill="white" />
</svg>
